<svg width="481" height="452" viewBox="0 0 481 452" fill="none" xmlns="http://www.w3.org/2000/svg">
<path d="M397.653 0H129.241C117.915 0 108.606 9.23152 108.606 20.6352V40.4945H418.133V20.5576C418.133 9.23152 408.979 0 397.653 0ZM291.064 28.0049H235.675C231.408 28.0049 227.918 24.5139 227.918 20.2473C227.918 15.9806 231.408 12.4897 235.675 12.4897H291.064C295.331 12.4897 298.822 15.9806 298.822 20.2473C298.822 24.5139 295.331 28.0049 291.064 28.0049ZM233.891 104.107H418.133V56.0097H108.606V238.158H121.484C122.492 238.158 123.423 238.313 124.276 238.701C126.836 239.632 128.776 241.959 129.241 244.829L130.793 255.845L131.568 261.12C134.749 262.206 137.852 263.602 140.955 264.999C142.352 265.697 143.748 266.318 145.144 267.093L158.332 258.25C161.435 256.155 165.624 256.543 168.262 259.336L179.588 271.205L195.491 287.884C197.508 289.978 198.128 292.849 197.353 295.409C197.12 296.339 196.732 297.193 196.112 297.891L190.448 305.571L186.802 310.536C187.423 311.855 187.888 313.173 188.432 314.492C188.975 315.656 189.518 316.897 189.983 318.138C190.759 320.233 191.535 322.327 192.155 324.422L198.827 325.818L207.593 327.602C211.239 328.301 213.799 331.481 213.799 335.05V335.36L212.868 374.846C212.79 376.785 212.092 378.492 210.928 379.811C209.765 381.13 208.136 382.138 206.274 382.371L190.604 384.853C189.285 388.655 187.656 392.378 185.794 395.947H418.133V327.525H325.896L286.875 361.968C286.642 362.279 286.332 362.356 286.022 362.589C285.324 363.132 284.548 363.598 283.772 363.985C283.384 364.218 283.074 364.451 282.608 364.606C281.6 365.072 280.514 365.382 279.35 365.537C279.04 365.615 278.652 365.615 278.342 365.692C277.876 365.692 277.411 365.77 276.868 365.77C276.558 365.77 276.17 365.692 275.782 365.692C275.239 365.615 274.773 365.615 274.23 365.537C273.222 365.304 272.136 364.994 271.127 364.606C270.972 364.528 270.739 364.528 270.584 364.451C265.154 361.968 261.741 356.693 261.741 350.72V327.525H233.968C231.023 327.529 228.106 326.952 225.384 325.827C222.662 324.701 220.189 323.05 218.106 320.967C216.024 318.885 214.373 316.412 213.247 313.69C212.122 310.968 211.545 308.051 211.549 305.105V126.448C211.549 120.523 213.903 114.84 218.093 110.65C222.283 106.461 227.965 104.107 233.891 104.107ZM99.0642 315.345C78.5067 315.345 61.7503 332.179 61.7503 352.815C61.7503 373.45 78.5067 390.206 99.0642 390.206C119.699 390.206 136.456 373.45 136.456 352.815C136.456 332.179 119.699 315.345 99.0642 315.345ZM99.0642 315.345C78.5067 315.345 61.7503 332.179 61.7503 352.815C61.7503 373.45 78.5067 390.206 99.0642 390.206C119.699 390.206 136.456 373.45 136.456 352.815C136.456 332.179 119.699 315.345 99.0642 315.345ZM195.413 340.945L184.398 338.696C182.963 338.427 181.636 337.749 180.576 336.745C179.517 335.74 178.769 334.451 178.424 333.033C177.571 329.542 176.485 326.129 175.244 322.948C175.011 322.482 174.778 322.017 174.623 321.552C173.459 318.836 172.296 316.121 170.899 313.561C170.144 312.274 169.818 310.78 169.968 309.295C169.968 308.674 170.124 308.053 170.279 307.51C170.356 307.355 170.356 307.278 170.356 307.2C170.667 306.424 170.977 305.804 171.442 305.183L177.648 296.805L179.743 293.935L169.115 282.686L161.513 274.773L149.954 282.531L149.799 282.608C149.256 282.996 148.635 283.307 148.015 283.462C147.937 283.539 147.937 283.539 147.859 283.539C145.765 284.238 143.438 284.005 141.421 282.841C138.938 281.29 136.378 280.049 133.741 278.807C130.017 277.101 126.293 275.627 122.415 274.463C121.872 274.23 121.328 273.998 120.863 273.687C120.708 273.61 120.553 273.61 120.398 273.532C118.536 272.291 117.217 270.352 116.907 268.102L115.898 261.042L114.812 253.673H88.2812L85.4885 267.636C84.8679 270.507 82.7733 272.834 79.903 273.532L79.0497 273.842C71.9903 275.704 65.9394 278.109 60.2764 281.212C58.9868 281.928 57.5182 282.258 56.0462 282.162C54.5742 282.065 53.1611 281.547 51.9758 280.669L40.6497 272.368L21.4109 290.754L29.1685 302.468C30.8752 304.95 30.8752 308.286 29.3236 310.846C27.9273 313.018 26.6085 315.423 25.2121 318.371C23.5055 322.017 22.1091 325.818 20.9455 329.852C20.0921 332.722 17.6097 334.817 14.6618 335.282L0.698181 337.455L0 363.985L13.8085 366.701C16.7564 367.321 19.1612 369.571 19.8594 372.519C21.4109 379.113 23.8933 385.707 27.3067 391.99C28.703 394.628 28.4703 397.808 26.6861 400.213L18.3079 411.617L36.6158 430.778L48.4073 422.865C50.8897 421.159 54.2255 421.081 56.7855 422.633C62.8364 426.356 69.1976 429.149 75.7139 431.088C78.6618 431.864 80.8339 434.347 81.2994 437.372L83.3939 451.956H109.847L112.718 437.915C113.261 434.967 115.51 432.562 118.458 431.864C125.207 430.235 131.724 427.753 137.93 424.339C139.219 423.623 140.688 423.294 142.16 423.39C143.632 423.486 145.045 424.004 146.23 424.882L157.479 433.183L176.795 414.798L172.684 408.592L168.96 403.084C167.253 400.524 167.253 397.265 168.882 394.628C169.658 393.387 170.201 391.99 170.899 390.749C173.072 386.715 174.933 382.526 176.33 378.104L177.261 375.777C177.881 373.605 179.355 371.821 181.372 370.89H181.527C182.148 370.579 182.768 370.347 183.467 370.269L197.508 368.019L198.128 341.488L195.413 340.945ZM99.0642 405.721C69.8958 405.721 46.2352 381.983 46.2352 352.815C46.2352 323.568 69.8958 299.83 99.0642 299.83C128.233 299.83 151.971 323.568 151.971 352.815C151.971 381.983 128.233 405.721 99.0642 405.721ZM99.0642 315.345C78.5067 315.345 61.7503 332.179 61.7503 352.815C61.7503 373.45 78.5067 390.206 99.0642 390.206C119.699 390.206 136.456 373.45 136.456 352.815C136.456 332.179 119.699 315.345 99.0642 315.345ZM99.0642 315.345C78.5067 315.345 61.7503 332.179 61.7503 352.815C61.7503 373.45 78.5067 390.206 99.0642 390.206C119.699 390.206 136.456 373.45 136.456 352.815C136.456 332.179 119.699 315.345 99.0642 315.345ZM99.0642 315.345C78.5067 315.345 61.7503 332.179 61.7503 352.815C61.7503 373.45 78.5067 390.206 99.0642 390.206C119.699 390.206 136.456 373.45 136.456 352.815C136.456 332.179 119.699 315.345 99.0642 315.345ZM193.241 411.462L193.319 411.539C195.413 414.72 194.948 418.909 192.233 421.469L180.131 432.95L163.53 448.853C160.815 451.491 156.625 451.724 153.6 449.474L151.738 448.155C151.455 448.012 151.194 447.829 150.962 447.612L140.878 440.242C136.301 442.415 131.646 444.276 126.992 445.673L125.75 451.956H397.576C408.902 451.956 418.133 442.725 418.133 431.321V411.462H193.241ZM291.064 440.087H235.675C231.408 440.087 227.918 436.596 227.918 432.33C227.918 427.985 231.408 424.572 235.675 424.572H291.064C295.331 424.572 298.822 427.985 298.822 432.33C298.822 436.596 295.331 440.087 291.064 440.087ZM473.988 119.622H426.201C426.124 119.622 425.969 119.699 425.891 119.699H233.968C230.167 119.699 227.064 122.725 227.064 126.448V305.105C227.064 306.269 227.452 307.278 227.918 308.208C229.081 310.458 231.253 312.01 233.891 312.01H269.576C273.842 312.01 277.333 315.501 277.333 319.767V349.712L317.828 313.949C319.224 312.708 321.009 312.01 322.948 312.01H473.988C477.712 312.01 480.815 308.907 480.815 305.105V126.448C480.815 122.725 477.712 119.622 473.988 119.622ZM319.535 253.673C317.518 253.673 315.578 252.897 314.027 251.423L285.556 222.953C284.834 222.23 284.263 221.371 283.877 220.425C283.49 219.48 283.296 218.466 283.307 217.445C283.307 215.428 284.082 213.411 285.556 212.015L314.027 183.467C317.052 180.441 322.017 180.441 325.042 183.467C328.068 186.57 328.068 191.457 325.042 194.482L302.002 217.445L325.042 240.407C328.068 243.433 328.068 248.398 325.042 251.423C323.491 252.897 321.552 253.673 319.535 253.673ZM334.662 294.71C333.964 294.71 333.265 294.633 332.567 294.4C331.579 294.139 330.652 293.684 329.842 293.06C329.032 292.437 328.354 291.658 327.848 290.769C327.343 289.881 327.019 288.901 326.897 287.886C326.775 286.871 326.857 285.841 327.137 284.858L365.77 145.842C366.933 141.731 371.278 139.326 375.389 140.49C379.501 141.576 381.905 145.92 380.742 150.032L342.109 289.047C341.178 292.461 337.998 294.71 334.662 294.71ZM422.322 222.953L393.852 251.423C392.301 252.897 390.361 253.673 388.344 253.673C386.405 253.673 384.388 252.897 382.836 251.423C382.113 250.697 381.541 249.835 381.154 248.887C380.766 247.939 380.57 246.923 380.577 245.899C380.584 244.875 380.795 243.862 381.196 242.919C381.597 241.977 382.181 241.123 382.914 240.407L405.876 217.445L382.914 194.482C382.177 193.767 381.592 192.91 381.192 191.964C380.792 191.018 380.586 190.002 380.586 188.975C380.586 187.947 380.792 186.931 381.192 185.985C381.592 185.039 382.177 184.182 382.914 183.467C383.632 182.748 384.484 182.177 385.423 181.788C386.361 181.398 387.367 181.198 388.383 181.198C389.399 181.198 390.405 181.398 391.344 181.788C392.282 182.177 393.134 182.748 393.852 183.467L422.322 212.015C423.796 213.411 424.572 215.428 424.572 217.445C424.572 219.539 423.796 221.479 422.322 222.953Z" fill="#289BFE"/>
</svg>
