<svg width="512" height="412" viewBox="0 0 512 412" fill="none" xmlns="http://www.w3.org/2000/svg">
<path d="M317.5 128H194.5C169.963 128 150 147.962 150 172.5C150 197.038 169.962 217 194.5 217H317.5C342.037 217 362 197.038 362 172.5C362 147.962 342.037 128 317.5 128ZM212.836 177.999C212.836 186.283 206.12 192.999 197.836 192.999C189.552 192.999 182.836 186.283 182.836 177.999V166.999C182.836 158.715 189.552 151.999 197.836 151.999C206.12 151.999 212.836 158.715 212.836 166.999V177.999ZM329.163 177.999C329.163 186.283 322.447 192.999 314.163 192.999C305.879 192.999 299.163 186.283 299.163 177.999V166.999C299.163 158.715 305.879 151.999 314.163 151.999C322.447 151.999 329.163 158.715 329.163 166.999V177.999Z" fill="#289BFE"/>
<path d="M437 207.997V179.003C437 78.728 355.752 0 256 0C156.141 0 75 78.74 75 179.003V207.997C75 254.264 112.741 292 159.003 292H352.997C399.259 292 437 254.259 437 207.997ZM194.5 246.999C153.421 246.999 120 213.579 120 172.499C120 131.419 153.42 97.999 194.5 97.999H317.5C358.579 97.999 392 131.419 392 172.499C392 213.579 358.579 246.999 317.5 246.999H194.5ZM334 352H301C284.5 352 271 365.5 271 382C271 398.5 284.5 412 301 412H334C350.5 412 364 398.5 364 382C364 365.5 350.5 352 334 352ZM482 306.497C482 339.835 453.144 368 418.986 368H392.334C393.439 372.585 393.998 377.284 394 382C394 387.541 393.229 392.902 391.817 398H418.986C469.405 398 512 356.097 512 306.497V277.18C503.275 283.745 493.078 288.454 482 290.712V306.497ZM467 111.221H465.702V24.477C465.702 16.193 458.986 9.477 450.702 9.477C442.418 9.477 435.702 16.193 435.702 24.477V68.825C456.087 101.477 467 139.324 467 179.003V207.997C467 227.612 462.02 246.086 453.258 262.221H467C491.813 262.221 512 242.034 512 217.221V156.221C512 131.408 491.813 111.221 467 111.221ZM45 179.003C45 139.306 55.913 101.447 76.297 68.791V24.477C76.297 16.193 69.581 9.477 61.297 9.477C53.013 9.477 46.297 16.193 46.297 24.477V111.221H45C20.187 111.221 0 131.408 0 156.221V217.221C0 242.034 20.187 262.221 45 262.221H58.742C49.98 246.086 45 227.613 45 207.997V179.003Z" fill="#289BFE"/>
</svg>
