<svg width="487" height="487" viewBox="0 0 487 487" fill="none" xmlns="http://www.w3.org/2000/svg">
<path fill-rule="evenodd" clip-rule="evenodd" d="M380.9 362.306L383.414 363.758C415.986 382.563 447.638 344.475 462.224 319.211C476.81 293.947 493.973 247.492 461.4 228.686L458.886 227.235C456.374 225.791 453.392 225.402 450.593 226.151C447.795 226.901 445.407 228.729 443.953 231.235L433.9 248.645C432.456 251.157 432.066 254.139 432.816 256.938C433.566 259.737 435.394 262.125 437.9 263.578L443.8 266.978C446.002 268.231 447.697 270.215 448.589 272.586C449.482 274.958 449.516 277.567 448.686 279.96C442.682 297.257 433.445 313.256 421.468 327.104C419.81 329.02 417.533 330.294 415.034 330.707C412.534 331.119 409.969 330.644 407.783 329.363L401.883 325.963C399.371 324.519 396.389 324.129 393.59 324.879C390.791 325.629 388.403 327.457 386.949 329.963L376.9 347.373C375.456 349.885 375.066 352.867 375.816 355.666C376.566 358.465 378.394 360.853 380.9 362.306ZM142.987 93.1534C128.43 93.1534 121.126 110.789 131.419 121.082C132.33 121.993 132.841 123.228 132.841 124.516C132.841 125.804 132.33 127.039 131.419 127.949L120.964 138.403C120.053 139.314 118.818 139.826 117.531 139.826C116.243 139.826 115.008 139.314 114.097 138.403C103.804 128.11 86.169 135.414 86.169 149.971C86.169 151.259 85.6574 152.494 84.7467 153.405C83.836 154.316 82.6009 154.827 81.313 154.827H66.529C65.8913 154.827 65.2599 154.702 64.6708 154.458C64.0817 154.214 63.5465 153.856 63.0956 153.405C62.6448 152.954 62.2872 152.419 62.0433 151.83C61.7994 151.24 61.6739 150.609 61.674 149.971C61.674 135.396 44.051 128.097 33.745 138.403C32.8343 139.314 31.5993 139.826 30.3115 139.826C29.0237 139.826 27.7887 139.314 26.878 138.403L16.424 127.949C15.5135 127.039 15.0019 125.804 15.0019 124.516C15.0019 123.228 15.5135 121.993 16.424 121.082C26.716 110.789 19.413 93.1534 4.856 93.1534C3.56811 93.1534 2.33297 92.6418 1.42229 91.7311C0.511613 90.8204 0 89.5853 0 88.2974V73.5144C0 72.2265 0.511613 70.9914 1.42229 70.0807C2.33297 69.17 3.56811 68.6584 4.856 68.6584C19.413 68.6584 26.716 51.0224 16.424 40.7304C15.5134 39.8196 15.0018 38.5844 15.0018 37.2964C15.0018 36.0085 15.5134 34.7732 16.424 33.8624L26.878 23.4084C27.7887 22.4979 29.0237 21.9863 30.3115 21.9863C31.5993 21.9863 32.8343 22.4979 33.745 23.4084C44.038 33.7014 61.674 26.3974 61.674 11.8404C61.6739 11.2028 61.7994 10.5713 62.0433 9.98218C62.2872 9.39303 62.6448 8.8577 63.0956 8.40677C63.5465 7.95583 64.0817 7.59813 64.6708 7.35408C65.2599 7.11003 65.8913 6.98442 66.529 6.98442H81.313C82.6009 6.98442 83.836 7.49603 84.7467 8.40671C85.6574 9.31738 86.169 10.5525 86.169 11.8404C86.169 26.3974 103.804 33.7014 114.097 23.4084C115.008 22.4979 116.243 21.9863 117.531 21.9863C118.818 21.9863 120.053 22.4979 120.964 23.4084L131.419 33.8624C132.33 34.7732 132.841 36.0085 132.841 37.2964C132.841 38.5844 132.33 39.8196 131.419 40.7304C121.126 51.0224 128.43 68.6584 142.987 68.6584C143.625 68.6584 144.256 68.784 144.845 69.0281C145.434 69.2721 145.97 69.6298 146.42 70.0808C146.871 70.5317 147.229 71.067 147.473 71.6562C147.717 72.2453 147.842 72.8768 147.842 73.5144V88.2974C147.842 88.9351 147.717 89.5665 147.473 90.1557C147.229 90.7448 146.871 91.2801 146.42 91.7311C145.97 92.182 145.434 92.5397 144.845 92.7838C144.256 93.0278 143.625 93.1534 142.987 93.1534ZM73.921 45.3924C66.8962 45.3924 60.0292 47.4755 54.1883 51.3783C48.3474 55.281 43.7949 60.8282 41.1066 67.3183C38.4184 73.8083 37.715 80.9498 39.0855 87.8396C40.4559 94.7295 43.8387 101.058 48.806 106.025C53.7733 110.993 60.102 114.375 66.9918 115.746C73.8816 117.116 81.0231 116.413 87.5132 113.725C94.0032 111.036 99.5504 106.484 103.453 100.643C107.356 94.8023 109.439 87.9352 109.439 80.9104C109.439 76.2461 108.521 71.6274 106.736 67.3181C104.951 63.0088 102.334 59.0933 99.0363 55.7951C95.7381 52.4969 91.8226 49.8807 87.5133 48.0958C83.204 46.3109 78.5853 45.3923 73.921 45.3924ZM154.879 231.52C161.098 242.22 171.298 250.025 183.252 253.229C195.206 256.433 207.942 254.776 218.679 248.62L255.293 227.48L208.585 146.58L171.974 167.712C161.275 173.932 153.472 184.133 150.269 196.087C147.066 208.041 148.723 220.776 154.879 231.512V231.52ZM263.701 238.79L234.352 255.735L282.512 320.178C283.285 321.2 284.264 322.049 285.384 322.67C286.505 323.292 287.743 323.672 289.019 323.788C290.295 323.903 291.581 323.75 292.795 323.34C294.008 322.929 295.123 322.27 296.067 321.403L307.186 311.312C308.896 309.755 309.961 307.614 310.173 305.31C310.385 303.007 309.728 300.708 308.331 298.864L263.7 238.786L263.701 238.79ZM421.133 206.052C426.121 203.154 429.758 198.399 431.251 192.827C432.745 187.254 431.972 181.318 429.102 176.313L339.8 21.6334C336.913 16.6328 332.158 12.9838 326.58 11.4892C321.003 9.99464 315.06 10.7769 310.06 13.6639C305.059 16.5509 301.41 21.3062 299.915 26.8836C298.421 32.4611 299.203 38.4038 302.09 43.4044L391.4 198.084C394.299 203.072 399.054 206.709 404.626 208.202C410.198 209.695 416.134 208.922 421.138 206.052H421.133ZM447.07 124.452C445.213 124.452 443.433 123.715 442.12 122.402C440.807 121.089 440.07 119.309 440.07 117.452C440.07 115.596 440.807 113.815 442.12 112.503C443.433 111.19 445.213 110.452 447.07 110.452H480C481.857 110.452 483.637 111.19 484.95 112.503C486.262 113.815 487 115.596 487 117.452C487 119.309 486.262 121.089 484.95 122.402C483.637 123.715 481.857 124.452 480 124.452H447.07ZM405.8 39.0024C404.869 40.5988 403.342 41.7608 401.556 42.2338C399.769 42.7068 397.868 42.4523 396.268 41.5259C394.669 40.5996 393.502 39.077 393.024 37.2918C392.545 35.5067 392.794 33.6046 393.715 32.0024L410.18 3.48342C411.108 1.88071 412.635 0.712401 414.425 0.235496C416.214 -0.241409 418.12 0.0121582 419.723 0.940416C421.326 1.86867 422.494 3.39558 422.971 5.18524C423.448 6.9749 423.194 8.88071 422.266 10.4834L405.8 39.0024ZM444.782 72.1924C443.989 72.6485 443.113 72.9438 442.205 73.0615C441.298 73.1792 440.376 73.117 439.492 72.8784C438.609 72.6398 437.781 72.2295 437.056 71.6709C436.33 71.1123 435.723 70.4164 435.267 69.6229C434.81 68.8294 434.515 67.9538 434.397 67.0462C434.28 66.1385 434.342 65.2166 434.581 64.333C434.819 63.4494 435.229 62.6215 435.788 61.8964C436.347 61.1714 437.042 60.5635 437.836 60.1074L464.872 44.4924C466.473 43.5932 468.365 43.3625 470.136 43.8502C471.906 44.338 473.413 45.5049 474.328 47.0972C475.243 48.6896 475.492 50.5788 475.022 52.3542C474.552 54.1295 473.4 55.6476 471.817 56.5784L444.782 72.1924ZM222.146 142.056L265.987 217.992C303.779 202.573 340.568 194.337 372.55 193.444L296.687 62.0444C279.922 89.2944 254.394 117.036 222.146 142.056ZM384.7 71.4134C389.813 70.488 395.086 71.164 399.8 73.3491C404.514 75.5342 408.438 79.1218 411.036 83.6214C413.634 88.1211 414.779 93.3132 414.315 98.4882C413.85 103.663 411.799 108.568 408.441 112.533L384.7 71.4134ZM357.629 385.492H246.061C243.619 385.5 241.279 386.473 239.552 388.2C237.825 389.926 236.852 392.266 236.845 394.708V477.768C236.852 480.21 237.825 482.55 239.552 484.277C241.279 486.004 243.619 486.977 246.061 486.984H357.629C360.071 486.977 362.411 486.004 364.138 484.277C365.864 482.55 366.838 480.21 366.845 477.768V394.708C366.838 392.266 365.865 389.926 364.138 388.2C362.411 386.473 360.071 385.5 357.629 385.492ZM317.317 438.836L286.373 456.701C285.917 456.965 285.399 457.103 284.873 457.103C284.346 457.103 283.828 456.964 283.372 456.701C282.916 456.437 282.537 456.058 282.274 455.602C282.011 455.146 281.873 454.628 281.873 454.101V418.371C281.873 417.845 282.011 417.327 282.274 416.871C282.537 416.414 282.916 416.035 283.372 415.772C283.828 415.508 284.346 415.37 284.873 415.369C285.399 415.369 285.917 415.508 286.373 415.771L317.317 433.636C317.774 433.899 318.154 434.278 318.417 434.735C318.681 435.191 318.82 435.709 318.82 436.236C318.82 436.764 318.681 437.282 318.417 437.738C318.154 438.195 317.774 438.573 317.317 438.836ZM286.038 225.285C282.105 226.701 278.222 228.172 274.39 229.699L319.569 290.511C323.024 295.151 324.633 300.908 324.084 306.666C323.534 312.424 320.865 317.774 316.595 321.675L305.476 331.766C303.087 333.942 300.269 335.595 297.204 336.619C294.139 337.643 290.894 338.016 287.677 337.713C284.46 337.411 281.341 336.44 278.521 334.863C275.7 333.286 273.24 331.137 271.298 328.554L244.324 292.461H87.324C85.4675 292.461 83.687 291.724 82.3743 290.411C81.0615 289.098 80.324 287.318 80.324 285.461C80.324 283.605 81.0615 281.824 82.3743 280.512C83.687 279.199 85.4675 278.461 87.324 278.461H233.862L222.057 262.661C212.098 267.567 200.983 269.642 189.925 268.661C178.868 267.68 168.292 263.68 159.352 257.098C150.412 250.517 143.452 241.606 139.232 231.338C135.011 221.07 133.692 209.841 135.418 198.874C58 210.092 0 256.211 0 311.41C0 351.044 29.907 385.999 75.43 406.71L58.562 479.377C58.4247 479.968 58.4698 480.587 58.6914 481.152C58.9129 481.717 59.3005 482.201 59.803 482.541C60.3054 482.881 60.8991 483.06 61.5058 483.056C62.1124 483.052 62.7035 482.864 63.201 482.516L145.374 425.184C154.2 426.099 163.068 426.556 171.941 426.553C189.038 426.58 206.093 424.86 222.841 421.421V394.708C222.85 388.553 225.299 382.653 229.652 378.3C234.005 373.948 239.906 371.5 246.061 371.492H318.639C334.648 354.001 343.883 333.428 343.883 311.41C343.883 277.14 321.518 246.375 286.038 225.285ZM256.558 344.357H87.324C85.4675 344.357 83.687 343.62 82.3743 342.307C81.0615 340.994 80.324 339.214 80.324 337.357C80.324 335.501 81.0615 333.72 82.3743 332.408C83.687 331.095 85.4675 330.357 87.324 330.357H256.558C258.415 330.357 260.195 331.095 261.508 332.408C262.821 333.72 263.558 335.501 263.558 337.357C263.558 339.214 262.821 340.994 261.508 342.307C260.195 343.62 258.415 344.357 256.558 344.357Z" fill="#289BFE"/>
</svg>
