<svg width="480" height="464" viewBox="0 0 480 464" fill="none" xmlns="http://www.w3.org/2000/svg">
<path d="M240.007 352C244.211 351.988 248.376 352.811 252.26 354.42C256.144 356.029 259.67 358.392 262.634 361.373L273.948 350.059C264.947 341.057 252.738 336 240.007 336C227.277 336 215.068 341.057 206.066 350.059L217.38 361.373C220.345 358.392 223.871 356.029 227.755 354.42C231.639 352.811 235.803 351.988 240.007 352Z" fill="#289BFE"/>
<path d="M223.036 367.03L234.351 378.343C235.851 376.843 237.886 376.001 240.007 376.001C242.128 376.001 244.163 376.843 245.663 378.343L256.978 367.03C254.75 364.802 252.104 363.034 249.192 361.827C246.28 360.621 243.159 360 240.007 360C236.855 360 233.734 360.621 230.822 361.827C227.911 363.034 225.265 364.802 223.036 367.03ZM438.233 286.059C433.776 281.602 428.484 278.066 422.661 275.654C416.837 273.242 410.595 272 404.292 272C397.988 272 391.746 273.242 385.923 275.654C380.099 278.066 374.807 281.602 370.35 286.059L381.664 297.373C387.665 291.372 395.804 288.001 404.291 288.001C412.778 288.001 420.917 291.372 426.918 297.373L438.233 286.059Z" fill="#289BFE"/>
<path d="M387.32 303.03L398.635 314.343C400.136 312.843 402.17 312 404.292 312C406.413 312 408.448 312.843 409.948 314.343L421.262 303.03C419.034 300.801 416.388 299.033 413.476 297.827C410.564 296.621 407.443 296 404.291 296C401.139 296 398.019 296.621 395.107 297.827C392.195 299.033 389.549 300.801 387.32 303.03Z" fill="#289BFE"/>
<path d="M240.007 400.5C244.701 400.5 248.507 396.694 248.507 392C248.507 387.306 244.701 383.5 240.007 383.5C235.312 383.5 231.507 387.306 231.507 392C231.507 396.694 235.312 400.5 240.007 400.5Z" fill="#289BFE"/>
<path d="M168.007 72H312.007C314.129 72 316.164 71.1571 317.664 69.6569C319.164 68.1566 320.007 66.1217 320.007 64V14C320.003 10.2882 318.527 6.72954 315.902 4.10489C313.277 1.48024 309.719 0.00397056 306.007 0H174.007C170.295 0.00397056 166.737 1.48024 164.112 4.10489C161.487 6.72954 160.011 10.2882 160.007 14V64C160.007 66.1217 160.85 68.1566 162.35 69.6569C163.85 71.1571 165.885 72 168.007 72ZM272.007 56H208.007V48H272.007V56ZM176.007 16H304.007V56H288.007V40C288.007 37.8783 287.164 35.8434 285.664 34.3431C284.164 32.8429 282.129 32 280.007 32H200.007C197.885 32 195.85 32.8429 194.35 34.3431C192.85 35.8434 192.007 37.8783 192.007 40V56H176.007V16ZM464.007 96H368.007C363.765 96.005 359.698 97.6924 356.699 100.692C353.699 103.691 352.012 107.758 352.007 112V128H320.007C318.441 128 316.91 128.46 315.603 129.321C314.296 130.183 313.271 131.41 312.654 132.849L294.454 175.326C286.074 167.379 275.437 162.225 264.007 160.573V144C264.007 142.683 263.682 141.387 263.06 140.225C262.439 139.064 261.541 138.075 260.445 137.344L216.007 107.719V88H200.007V112C200.007 113.317 200.332 114.613 200.954 115.775C201.575 116.936 202.473 117.925 203.569 118.656L248.007 148.281V160.581C240.565 161.628 233.412 164.173 226.981 168.062L181.129 129.852C179.691 128.655 177.878 127.999 176.007 128H112.007V88C112.002 83.7581 110.315 79.6913 107.315 76.6918C104.316 73.6924 100.249 72.005 96.007 72H16.007C11.7651 72.005 7.69834 73.6924 4.69885 76.6918C1.69935 79.6913 0.012029 83.7581 0.00700067 88V208C0.00700067 210.122 0.849855 212.157 2.35015 213.657C3.85044 215.157 5.88527 216 8.007 216H104.007C106.129 216 108.164 215.157 109.664 213.657C111.164 212.157 112.007 210.122 112.007 208V144H173.107L214.45 178.453C212.57 180.533 210.847 182.752 209.298 185.089C199.876 182.845 189.96 184.093 181.387 188.601C172.815 193.109 166.167 200.572 162.675 209.606C149.157 212.909 137.355 221.132 129.573 232.669C121.791 244.206 118.587 258.229 120.588 272H104.007C102.765 272 101.54 272.289 100.429 272.845C99.3185 273.4 98.3522 274.206 97.607 275.2L77.244 302.35L67.976 297.05C66.7673 296.359 65.3992 295.996 64.007 295.996C62.6148 295.996 61.2468 296.359 60.038 297.05L4.038 329.05C2.50429 329.924 1.30286 331.281 0.620927 332.91C-0.0610085 334.538 -0.185147 336.346 0.267853 338.053C0.720854 339.759 1.72555 341.268 3.12539 342.343C4.52523 343.419 6.24158 344.002 8.007 344V408C8.007 410.122 8.84986 412.157 10.3501 413.657C11.8504 415.157 13.8853 416 16.007 416H112.007C114.129 416 116.164 415.157 117.664 413.657C119.164 412.157 120.007 410.122 120.007 408V344C121.771 344 123.486 343.417 124.884 342.341C126.283 341.266 127.286 339.758 127.739 338.053C128.192 336.348 128.068 334.541 127.388 332.914C126.707 331.286 125.508 329.929 123.976 329.054L91.244 310.354L108.007 288H125.421C129.969 297.568 137.134 305.652 146.087 311.315C155.039 316.979 165.413 319.99 176.007 320H184.007V442C184.014 447.833 186.334 453.425 190.458 457.549C194.582 461.673 200.174 463.993 206.007 464H274.007C279.84 463.993 285.432 461.673 289.556 457.549C293.68 453.425 296 447.833 296.007 442V320H304.007C318.214 320.008 331.894 314.617 342.274 304.917C352.655 295.217 358.961 281.934 359.914 267.758C360.868 253.583 356.398 239.575 347.41 228.572C338.422 217.57 325.587 210.394 311.507 208.5C310.634 202.027 308.626 195.758 305.576 189.982L325.282 144H352.007V176C352.012 180.242 353.699 184.309 356.699 187.308C359.698 190.308 363.765 191.995 368.007 192H388.907L384.417 205.47C384.016 206.673 383.907 207.953 384.098 209.206C384.289 210.46 384.775 211.649 385.517 212.678C386.258 213.706 387.233 214.544 388.361 215.121C389.49 215.699 390.739 216 392.007 216H440.007C441.275 216 442.524 215.699 443.652 215.121C444.781 214.543 445.756 213.706 446.497 212.677C447.238 211.649 447.724 210.459 447.915 209.206C448.106 207.953 447.997 206.673 447.596 205.47L443.107 192H464.007C468.249 191.995 472.316 190.308 475.315 187.308C478.315 184.309 480.002 180.242 480.007 176V112C480.002 107.758 478.315 103.691 475.315 100.692C472.316 97.6924 468.249 96.005 464.007 96ZM96.007 200H16.007V184H96.007V200ZM96.007 168H16.007V88H96.007V168ZM64.007 313.214L89.882 328H38.132L64.007 313.214ZM72.007 400H56.007V376H72.007V400ZM104.007 344V400H88.007V368C88.007 365.878 87.1641 363.843 85.6639 362.343C84.1636 360.843 82.1287 360 80.007 360H48.007C45.8853 360 43.8504 360.843 42.3501 362.343C40.8499 363.843 40.007 365.878 40.007 368V400H24.007V344H104.007ZM256.007 224C257.589 224 259.136 224.469 260.452 225.348C261.767 226.227 262.793 227.477 263.398 228.939C264.004 230.4 264.162 232.009 263.853 233.561C263.545 235.113 262.783 236.538 261.664 237.657C260.545 238.776 259.12 239.538 257.568 239.846C256.016 240.155 254.407 239.997 252.946 239.391C251.484 238.786 250.234 237.76 249.355 236.445C248.476 235.129 248.007 233.582 248.007 232C248.009 229.879 248.853 227.846 250.353 226.346C251.853 224.846 253.886 224.002 256.007 224ZM280.007 442C280.005 443.591 279.373 445.116 278.248 446.241C277.123 447.366 275.598 447.998 274.007 448H206.007C204.416 447.998 202.891 447.366 201.766 446.241C200.641 445.116 200.009 443.591 200.007 442V432H280.007V442ZM280.007 416H200.007V320H280.007V416ZM280.007 304H200.007V294C200.009 292.409 200.641 290.884 201.766 289.759C202.891 288.634 204.416 288.002 206.007 288H274.007C275.598 288.002 277.123 288.634 278.248 289.759C279.373 290.884 280.005 292.409 280.007 294V304ZM344.007 264C343.995 274.605 339.777 284.772 332.278 292.271C324.779 299.77 314.612 303.988 304.007 304H296.007V294C296 288.167 293.68 282.575 289.556 278.451C285.432 274.327 279.84 272.007 274.007 272H206.007C200.174 272.007 194.582 274.327 190.458 278.451C186.334 282.575 184.014 288.167 184.007 294V304H176.007C165.911 304.004 156.187 300.19 148.786 293.323C141.385 286.456 136.855 277.045 136.103 266.977C135.352 256.909 138.435 246.93 144.735 239.041C151.035 231.151 160.084 225.936 170.069 224.441C171.647 224.206 173.119 223.504 174.295 222.425C175.471 221.347 176.298 219.942 176.669 218.39C177.491 214.97 179.055 211.773 181.25 209.025C183.445 206.277 186.217 204.044 189.37 202.486C192.523 200.928 195.98 200.081 199.497 200.007C203.013 199.933 206.503 200.632 209.719 202.056C211.605 202.893 213.742 202.969 215.683 202.267C217.624 201.566 219.219 200.142 220.134 198.292C222.819 192.812 226.73 188.023 231.564 184.297C236.397 180.571 242.024 178.008 248.007 176.806V209.376C242.669 211.263 238.171 214.977 235.306 219.86C232.441 224.743 231.395 230.482 232.353 236.062C233.31 241.642 236.209 246.704 240.538 250.353C244.866 254.002 250.345 256.003 256.007 256.003C261.668 256.003 267.148 254.002 271.476 250.353C275.805 246.704 278.704 241.642 279.661 236.062C280.619 230.482 279.573 224.743 276.708 219.86C273.843 214.977 269.345 211.263 264.007 209.376V176.805C273.035 178.661 281.148 183.572 286.977 190.712C292.806 197.852 295.995 206.783 296.007 216C296.007 218.122 296.85 220.157 298.35 221.657C299.85 223.157 301.885 224 304.007 224C314.612 224.012 324.779 228.23 332.278 235.729C339.777 243.228 343.995 253.395 344.007 264ZM368.007 112H464.007L464.013 152H368.007V112ZM403.107 200L405.773 192H426.241L428.907 200H403.107ZM464.007 176H368.007V168H464.016V176H464.007Z" fill="#289BFE"/>
<path d="M56.0068 160C62.3358 160 68.5227 158.123 73.7851 154.607C79.0475 151.091 83.149 146.093 85.571 140.246C87.993 134.399 88.6267 127.965 87.392 121.757C86.1572 115.55 83.1095 109.848 78.6343 105.373C74.159 100.897 68.4571 97.8496 62.2497 96.6149C56.0423 95.3802 49.6082 96.0139 43.761 98.4359C37.9137 100.858 32.916 104.959 29.3998 110.222C25.8836 115.484 24.0068 121.671 24.0068 128C24.0164 136.484 27.3908 144.618 33.3899 150.617C39.389 156.616 47.5228 159.99 56.0068 160ZM56.0068 112C59.1713 112 62.2648 112.938 64.896 114.697C67.5271 116.455 69.5779 118.953 70.7889 121.877C71.9999 124.801 72.3168 128.018 71.6994 131.121C71.082 134.225 69.5582 137.076 67.3205 139.314C65.0829 141.551 62.232 143.075 59.1283 143.693C56.0246 144.31 52.8075 143.993 49.8839 142.782C46.9603 141.571 44.4614 139.52 42.7033 136.889C40.9452 134.258 40.0068 131.165 40.0068 128C40.0119 123.758 41.6992 119.691 44.6987 116.692C47.6982 113.692 51.7649 112.005 56.0068 112ZM168.007 240H184.007V256H168.007V240ZM200.007 240H216.007V256H200.007V240ZM296.007 240H312.007V256H296.007V240ZM473.947 360.239L445.216 353.056C445.073 352.927 444.92 352.809 444.758 352.704L430.663 331.562C429.932 330.466 428.943 329.568 427.781 328.947C426.62 328.325 425.324 328 424.007 328H368.007C366.69 328 365.393 328.325 364.232 328.947C363.071 329.568 362.081 330.466 361.351 331.562L345.351 355.562C344.474 356.876 344.006 358.42 344.007 360V400C344.007 402.122 344.85 404.157 346.35 405.657C347.85 407.157 349.885 408 352.007 408H361.383C363.039 412.677 366.103 416.726 370.155 419.589C374.206 422.453 379.046 423.99 384.007 423.99C388.968 423.99 393.808 422.453 397.859 419.589C401.911 416.726 404.975 412.677 406.631 408H417.383C419.039 412.677 422.103 416.726 426.155 419.589C430.206 422.453 435.046 423.99 440.007 423.99C444.968 423.99 449.808 422.453 453.859 419.589C457.911 416.726 460.975 412.677 462.631 408H472.007C474.129 408 476.163 407.157 477.664 405.657C479.164 404.157 480.007 402.122 480.007 400V368C480.007 366.216 479.41 364.483 478.312 363.077C477.214 361.671 475.678 360.672 473.947 360.239ZM425.059 352H400.007V344H419.726L425.059 352ZM372.288 344H384.007V352H366.955L372.288 344ZM384.007 408C382.425 408 380.878 407.531 379.562 406.652C378.247 405.773 377.221 404.523 376.616 403.061C376.01 401.6 375.852 399.991 376.161 398.439C376.469 396.887 377.231 395.462 378.35 394.343C379.469 393.224 380.894 392.462 382.446 392.154C383.998 391.845 385.606 392.004 387.068 392.609C388.53 393.215 389.78 394.24 390.659 395.555C391.538 396.871 392.007 398.418 392.007 400C392.004 402.121 391.161 404.154 389.661 405.654C388.161 407.154 386.128 407.998 384.007 408ZM440.007 408C438.425 408 436.878 407.531 435.562 406.652C434.247 405.773 433.221 404.523 432.616 403.061C432.01 401.6 431.852 399.991 432.161 398.439C432.469 396.887 433.231 395.462 434.35 394.343C435.469 393.224 436.894 392.462 438.446 392.154C439.998 391.845 441.606 392.004 443.068 392.609C444.53 393.215 445.78 394.24 446.659 395.555C447.538 396.871 448.007 398.418 448.007 400C448.004 402.121 447.161 404.154 445.661 405.654C444.161 407.154 442.128 407.998 440.007 408ZM464.007 392H462.631C460.975 387.323 457.911 383.274 453.859 380.411C449.808 377.547 444.968 376.01 440.007 376.01C435.046 376.01 430.206 377.547 426.155 380.411C422.103 383.274 419.039 387.323 417.383 392H406.631C404.975 387.323 401.911 383.274 397.859 380.411C393.808 377.547 388.968 376.01 384.007 376.01C379.046 376.01 374.206 377.547 370.155 380.411C366.103 383.274 363.039 387.323 361.383 392H360.007V368H439.022L464.007 374.246V392Z" fill="#289BFE"/>
</svg>
