<svg width="472" height="473" viewBox="0 0 472 473" fill="none" xmlns="http://www.w3.org/2000/svg">
<path fill-rule="evenodd" clip-rule="evenodd" d="M186.878 278.505C169.663 272.921 153.228 280.429 138.479 288.968L78.193 323.872L122.838 402.757L133.964 396.334C135.788 395.283 137.956 394.999 139.989 395.545L258.666 427.319C273.624 431.328 287.773 429.516 300.999 421.375C355.571 387.863 410.077 354.241 464.609 320.663C472.903 315.557 473.978 301.607 469.063 293.689C458.223 276.223 428.198 290.764 415.724 298.029L325.569 350.54C318.428 354.698 311.083 357.341 303.46 358.621C295.933 359.885 288.182 359.797 280.129 358.509L269.492 356.784C269.091 356.719 268.693 356.661 268.298 356.565C248.043 352.404 228.425 346.071 208.483 340.728C206.461 340.16 204.744 338.817 203.704 336.991C202.664 335.166 202.385 333.004 202.927 330.974C203.47 328.945 204.79 327.21 206.602 326.147C208.414 325.083 210.571 324.776 212.608 325.291C232.106 330.515 251.432 336.795 271.198 340.882C281.239 342.11 289.523 338.942 292.31 328.542C294.838 319.107 288.889 310.215 279.977 307.128C252.902 302.172 226.623 292.672 205.96 285.202C198.771 282.604 192.274 280.255 186.878 278.505ZM292.961 132.891C297.673 128.18 305.381 128.18 310.092 132.891L322.366 145.165L355.575 111.956C360.286 107.245 367.995 107.245 372.706 111.956C377.417 116.667 377.417 124.376 372.706 129.087L331.168 170.624C325.162 176.63 317.128 174.189 311.802 168.863L292.96 150.023C288.249 145.311 288.25 137.602 292.961 132.891ZM440.902 116.719C438.184 105.303 433.662 94.3934 427.506 84.4025L436.827 63.4145L412.084 38.6715L391.09 47.9955C381.101 41.8417 370.195 37.3203 358.782 34.6015L350.536 13.1775H315.545L307.298 34.6015C295.886 37.3205 284.98 41.8419 274.991 47.9955L253.997 38.6715L229.254 63.4155L238.577 84.4075C232.422 94.3966 227.901 105.304 225.183 116.717L203.761 124.964V159.956L225.18 168.2C227.898 179.615 232.421 190.524 238.576 200.516L229.255 221.503L253.998 246.245L274.992 236.921C284.98 243.075 295.886 247.597 307.299 250.314L315.545 271.738H350.537L358.781 250.32C370.197 247.601 381.106 243.079 391.097 236.924L412.084 246.245L436.827 221.501L427.503 200.508C433.656 190.519 438.178 179.613 440.896 168.201L462.319 159.954V124.962L440.902 116.719ZM332.833 209.943C294.911 209.943 264.169 179.201 264.169 141.279C264.169 103.356 294.911 72.6135 332.833 72.6135C370.755 72.6135 401.498 103.356 401.498 141.279C401.498 179.201 370.755 209.943 332.833 209.943ZM129.738 140.294L140.731 169.247C141.061 170.117 141.831 170.676 142.76 170.721L173.693 172.229C175.797 172.331 176.658 174.982 175.016 176.301L150.877 195.702C150.525 195.978 150.263 196.352 150.125 196.777C149.987 197.202 149.979 197.659 150.102 198.089L158.227 227.973C158.779 230.005 156.526 231.643 154.763 230.49L128.851 213.529C128.48 213.279 128.044 213.146 127.597 213.146C127.15 213.146 126.714 213.279 126.343 213.529L100.432 230.49C98.67 231.643 96.416 230.006 96.968 227.973L105.093 198.089C105.216 197.659 105.207 197.202 105.069 196.777C104.931 196.352 104.67 195.978 104.318 195.702L80.179 176.301C78.537 174.981 79.398 172.331 81.502 172.229L112.435 170.721C112.882 170.704 113.313 170.555 113.675 170.293C114.036 170.03 114.311 169.666 114.465 169.247L125.457 140.294C126.199 138.336 128.995 138.336 129.738 140.294ZM129.738 1.4685L140.73 30.4215C141.061 31.2915 141.83 31.8505 142.76 31.8955L173.692 33.4035C175.796 33.5055 176.657 36.1565 175.015 37.4755L150.876 56.8775C150.525 57.1533 150.263 57.5275 150.125 57.9525C149.987 58.3774 149.979 58.8338 150.101 59.2635L158.226 89.1485C158.779 91.1805 156.525 92.8185 154.762 91.6655L128.851 74.7035C128.48 74.4542 128.044 74.321 127.597 74.321C127.15 74.321 126.714 74.4542 126.343 74.7035L100.432 91.6655C98.67 92.8195 96.415 91.1815 96.968 89.1485L105.093 59.2635C105.215 58.8338 105.207 58.3774 105.069 57.9525C104.931 57.5275 104.67 57.1533 104.318 56.8775L80.179 37.4755C78.537 36.1565 79.399 33.5055 81.502 33.4035L112.435 31.8955C112.881 31.8795 113.313 31.7306 113.674 31.4681C114.036 31.2055 114.311 30.8411 114.464 30.4215L125.457 1.4685C126.199 -0.4895 128.994 -0.4895 129.738 1.4685ZM124.478 438.141L50.111 306.739C46.515 300.385 38.375 298.129 32.021 301.725L6.72603 316.041C0.372031 319.637 -1.88397 327.778 1.71203 334.132L76.08 465.533C79.676 471.887 87.816 474.143 94.17 470.547L119.465 456.231C125.817 452.635 128.074 444.494 124.478 438.141ZM35.671 344.308C34.495 344.485 33.2956 344.428 32.1417 344.14C30.9878 343.853 29.9021 343.34 28.9469 342.631C27.9917 341.923 27.1859 341.032 26.5756 340.012C25.9653 338.991 25.5626 337.86 25.3907 336.683C25.2187 335.506 25.2808 334.307 25.5735 333.154C25.8662 332.002 26.3836 330.918 27.0961 329.966C27.8086 329.014 28.7021 328.212 29.7254 327.605C30.7487 326.999 31.8816 326.602 33.059 326.434C35.4243 326.099 37.8261 326.714 39.7388 328.145C41.6516 329.576 42.9194 331.707 43.2648 334.071C43.6103 336.435 43.0052 338.839 41.582 340.758C40.1587 342.676 38.0334 343.953 35.671 344.308Z" fill="#289BFE"/>
</svg>
