<svg width="481" height="481" viewBox="0 0 481 481" fill="none" xmlns="http://www.w3.org/2000/svg">
<path d="M205.964 465.223V432.874H134.516V449.708H102.555C93.9442 449.708 86.9624 456.69 86.9624 465.378V480.971H210.23C207.515 476.394 205.964 471.119 205.964 465.378V465.223ZM383.147 197.664V138.241C383.147 129.63 376.165 122.648 367.554 122.648H15.5927C6.98182 122.648 0 129.63 0 138.241V342.731H205.964V228.772C205.964 211.628 219.927 197.664 237.072 197.664H383.147ZM70.9042 240.641C71.9868 241.725 72.723 243.105 73.0193 244.608C73.3156 246.11 73.1586 247.667 72.5684 249.08C71.9782 250.494 70.9813 251.699 69.7043 252.545C68.4273 253.391 66.9279 253.837 65.3964 253.829C63.3794 253.829 61.44 253.053 59.8885 251.579L33.5127 225.204C32.7936 224.486 32.223 223.633 31.8337 222.695C31.4444 221.757 31.2441 220.751 31.2441 219.735C31.2441 218.719 31.4444 217.712 31.8337 216.774C32.223 215.836 32.7936 214.983 33.5127 214.265L59.8885 187.89C60.6067 187.171 61.4593 186.602 62.3977 186.213C63.3361 185.824 64.3419 185.624 65.3576 185.624C66.3733 185.624 67.379 185.824 68.3174 186.213C69.2558 186.602 70.1085 187.171 70.8267 187.89C71.5449 188.608 72.1146 189.461 72.5033 190.399C72.892 191.337 73.092 192.343 73.092 193.359C73.092 194.374 72.892 195.38 72.5033 196.319C72.1146 197.257 71.5449 198.11 70.8267 198.828L49.8812 219.773L70.9042 240.641ZM135.758 172.762L88.9794 273.223C88.103 275.084 86.5298 276.526 84.5994 277.237C82.669 277.949 80.5363 277.872 78.6618 277.024C77.7358 276.596 76.904 275.988 76.2145 275.236C75.5251 274.484 74.9917 273.603 74.6454 272.643C74.299 271.683 74.1466 270.664 74.1968 269.645C74.2471 268.626 74.4991 267.628 74.9382 266.707L121.794 166.246C123.578 162.367 128.233 160.661 132.112 162.522C135.913 164.229 137.619 168.884 135.758 172.762ZM177.105 225.204L150.73 251.579C149.178 253.131 147.239 253.829 145.222 253.829C143.205 253.829 141.265 253.053 139.714 251.579C138.995 250.862 138.424 250.009 138.035 249.071C137.646 248.132 137.445 247.126 137.445 246.11C137.445 245.094 137.646 244.088 138.035 243.15C138.424 242.211 138.995 241.359 139.714 240.641L160.659 219.696L139.714 198.75C138.996 198.032 138.426 197.179 138.037 196.241C137.649 195.303 137.449 194.297 137.449 193.281C137.449 192.265 137.649 191.26 138.037 190.321C138.426 189.383 138.996 188.53 139.714 187.812C140.432 187.094 141.285 186.524 142.223 186.135C143.162 185.747 144.167 185.547 145.183 185.547C146.199 185.547 147.204 185.747 148.143 186.135C149.081 186.524 149.934 187.094 150.652 187.812L177.028 214.188C180.131 217.291 180.131 222.178 177.105 225.204ZM205.964 358.246H0V401.766C0 410.377 6.98182 417.359 15.5927 417.359H205.964V358.246ZM191.612 391.759C189.544 391.769 187.557 390.958 186.088 389.503C184.619 388.048 183.787 386.069 183.777 384.001C183.767 381.933 184.578 379.946 186.033 378.477C187.488 377.008 189.467 376.176 191.535 376.166C192.558 376.161 193.573 376.358 194.521 376.745C195.469 377.132 196.331 377.702 197.059 378.422C197.786 379.142 198.365 379.999 198.761 380.943C199.158 381.887 199.365 382.9 199.37 383.924C199.375 384.947 199.178 385.962 198.791 386.91C198.404 387.858 197.834 388.72 197.114 389.448C196.393 390.175 195.537 390.754 194.593 391.15C193.649 391.547 192.636 391.754 191.612 391.759ZM412.781 303.633H289.125L350.953 331.095L412.781 303.633ZM289.125 375.623H412.781L350.953 348.084L289.125 375.623ZM260.422 307.744V371.434L331.869 339.628L260.422 307.744Z" fill="#289BFE"/>
<path d="M464.911 213.18H237.071C228.46 213.18 221.479 220.162 221.479 228.772V256.855H480.504V228.772C480.504 220.162 473.522 213.18 464.911 213.18ZM254.759 246.692C253.735 246.692 252.721 246.491 251.775 246.099C250.829 245.707 249.97 245.133 249.246 244.409C248.522 243.685 247.947 242.825 247.556 241.88C247.164 240.934 246.962 239.92 246.962 238.896C246.962 237.872 247.164 236.858 247.556 235.913C247.947 234.967 248.522 234.107 249.246 233.383C249.97 232.659 250.829 232.085 251.775 231.693C252.721 231.301 253.735 231.1 254.759 231.1C259.103 231.1 262.594 234.591 262.594 238.857C262.573 240.929 261.741 242.91 260.276 244.375C258.811 245.84 256.83 246.672 254.759 246.692ZM282.841 246.692C281.817 246.692 280.803 246.491 279.857 246.099C278.912 245.707 278.052 245.133 277.328 244.409C276.604 243.685 276.03 242.825 275.638 241.88C275.246 240.934 275.045 239.92 275.045 238.896C275.045 237.872 275.246 236.858 275.638 235.913C276.03 234.967 276.604 234.107 277.328 233.383C278.052 232.659 278.912 232.085 279.857 231.693C280.803 231.301 281.817 231.1 282.841 231.1C287.185 231.1 290.676 234.591 290.676 238.857C290.656 240.929 289.824 242.91 288.359 244.375C286.894 245.84 284.913 246.672 282.841 246.692ZM310.923 246.692C309.9 246.692 308.886 246.491 307.94 246.099C306.994 245.707 306.134 245.133 305.41 244.409C304.687 243.685 304.112 242.825 303.72 241.88C303.329 240.934 303.127 239.92 303.127 238.896C303.127 237.872 303.329 236.858 303.72 235.913C304.112 234.967 304.687 234.107 305.41 233.383C306.134 232.659 306.994 232.085 307.94 231.693C308.886 231.301 309.9 231.1 310.923 231.1C315.268 231.1 318.759 234.591 318.759 238.857C318.738 240.929 317.906 242.91 316.441 244.375C314.976 245.84 312.995 246.672 310.923 246.692ZM221.479 465.378C221.479 473.989 228.46 480.971 237.071 480.971H464.911C473.522 480.971 480.504 473.989 480.504 465.378V272.37H221.479V465.378ZM410.298 457.543H374.536C370.269 457.543 366.778 454.052 366.778 449.786C366.778 445.519 370.269 442.028 374.536 442.028H410.298C414.565 442.028 418.055 445.519 418.055 449.786C418.055 454.052 414.642 457.543 410.298 457.543ZM449.319 424.341H374.536C370.269 424.341 366.778 420.85 366.778 416.583C366.778 412.317 370.269 408.826 374.536 408.826H449.319C453.585 408.826 457.076 412.317 457.076 416.583C457.076 420.85 453.663 424.341 449.319 424.341ZM244.906 295.875C244.906 291.609 248.397 288.118 252.664 288.118H449.396C453.663 288.118 457.154 291.609 457.154 295.875V383.381C457.154 387.648 453.663 391.138 449.396 391.138H252.664C248.397 391.138 244.906 387.648 244.906 383.381V295.875ZM252.664 408.826H327.447C331.714 408.826 335.205 412.317 335.205 416.583C335.205 420.85 331.714 424.341 327.447 424.341H252.664C248.397 424.341 244.906 420.85 244.906 416.583C244.906 412.317 248.32 408.826 252.664 408.826ZM252.664 442.028H288.426C292.693 442.028 296.184 445.519 296.184 449.786C296.184 454.052 292.693 457.543 288.426 457.543H252.664C248.397 457.543 244.906 454.052 244.906 449.786C244.906 445.519 248.32 442.028 252.664 442.028Z" fill="#289BFE"/>
<path d="M441.561 371.433V307.743L370.037 339.627L441.561 371.433ZM366.778 62.7588C378.773 62.7588 390.277 67.5237 398.759 76.0054C407.24 84.487 412.005 95.9906 412.005 107.985C412.005 120.553 406.885 131.879 398.662 140.102V185.329C402.851 183.622 406.885 181.527 410.686 179.2L429.925 190.836C432.408 192.31 435.588 191.922 437.605 189.905L448.621 178.89C450.638 176.873 451.026 173.692 449.552 171.21L437.915 151.971C442.57 144.446 446.061 136.145 448.155 127.302L469.954 121.949C472.747 121.251 474.686 118.768 474.686 115.898V100.305C474.686 97.4352 472.747 94.8752 469.954 94.2546L448.155 88.9018C446.09 80.182 442.632 71.8522 437.915 64.2327L449.552 44.9939C451.026 42.5115 450.638 39.3309 448.621 37.3139L437.605 26.2982C436.609 25.3146 435.314 24.6895 433.924 24.521C432.534 24.3525 431.128 24.6502 429.925 25.3673L410.686 37.0036C403.161 32.1939 394.938 28.703 386.095 26.6085L380.664 4.73213C380.331 3.37992 379.554 2.17868 378.457 1.32073C377.359 0.462771 376.006 -0.00228615 374.614 8.45063e-06H358.943C356.073 8.45063e-06 353.513 1.9394 352.892 4.73213L347.54 26.5309C338.696 28.6255 330.395 32.1164 322.871 36.7709L303.632 25.1346C302.429 24.4174 301.023 24.1198 299.633 24.2883C298.243 24.4567 296.948 25.0818 295.952 26.0655L284.936 37.0812C282.919 39.0982 282.531 42.2788 284.005 44.7612L295.641 64C290.987 71.5249 287.496 79.8255 285.401 88.6691L263.525 94.0994C260.732 94.7976 258.793 97.28 258.793 100.15V107.132H321.629C321.841 95.2954 326.69 84.0145 335.133 75.7161C343.577 67.4178 354.94 62.765 366.778 62.7588Z" fill="#289BFE"/>
</svg>
